<mxfile host="app.diagrams.net" modified="2024-04-07T05:52:47.068Z" agent="Mozilla/5.0 (Windows NT 10.0; Win64; x64) AppleWebKit/537.36 (KHTML, like Gecko) Chrome/123.0.0.0 Safari/537.36" version="24.2.2" etag="3TWcHtfRpuJArJIV4skx" type="github">
  <diagram name="第 1 页" id="b8dV7GRzmGHM_8BWf8Px">
    <mxGraphModel>
      <root>
        <mxCell id="0" />
        <mxCell id="1" parent="0" />
      </root>
    </mxGraphModel>
  </diagram>
</mxfile>
